<?xml version="1.0" encoding="UTF-8" standalone="no"?>
<!-- Created with Inkscape (http://www.inkscape.org/) -->

<svg
   width="100mm"
   height="100mm"
   viewBox="0 0 100 100"
   version="1.1"
   id="svg5"
   xmlns="http://www.w3.org/2000/svg"
   xmlns:svg="http://www.w3.org/2000/svg">
  <defs
     id="defs2">
    <rect
       x="533.12347"
       y="580.6748"
       width="225.86877"
       height="61.268047"
       id="rect5111" />
  </defs>
  <g
     id="layer1">
    <g
       id="layer1-6"
       transform="translate(-121.55918,-78.386896)">
      <path
         style="fill:#000000;stroke-width:1"
         d="m 169.21906,152.34427 c -1.1539,-0.21752 -3.11967,-0.80426 -4.36838,-1.30386 l -2.27038,-0.90836 -2.3785,0.98016 c -2.35922,0.97222 -2.40852,0.98012 -6.08266,0.97395 -3.56015,-0.006 -3.78647,-0.0396 -5.82084,-0.86514 -2.42375,-0.98353 -4.98199,-2.62476 -5.10604,-3.27576 -0.052,-0.27291 0.86399,-1.39021 2.38604,-2.91042 2.33183,-2.32903 4.17521,-5.0317 4.17521,-6.1215 0,-0.22692 -0.32079,-0.47542 -0.72965,-0.56522 -1.28834,-0.28296 -3.42565,-1.68187 -4.4158,-2.89022 -1.40003,-1.70855 -2.08469,-3.84406 -1.93171,-6.02512 0.15413,-2.19744 0.94012,-3.88099 2.66809,-5.71487 l 1.30686,-1.38696 -0.13354,-1.66352 c -0.14611,-1.82032 -0.83094,-3.4102 -1.89788,-4.40607 -1.41085,-1.31688 -0.60293,-2.05845 1.97298,-1.81094 0.86498,0.0831 1.30857,0.0252 1.30857,-0.17088 0,-0.36247 -1.14285,-2.09387 -2.16038,-3.27293 -0.83441,-0.96687 -0.96656,-1.76932 -0.33152,-2.01301 1.4431,-0.55377 5.20021,0.17253 7.44883,1.43997 0.76178,0.42937 1.43561,0.78068 1.4974,0.78068 0.25968,0 -0.67664,-2.88102 -1.44076,-4.43316 -0.45462,-0.92347 -0.76036,-1.8516 -0.67942,-2.06252 0.28423,-0.7407 3.22719,-0.39933 6.97678,0.80926 0.56817,0.18314 0.59532,0.12593 0.59532,-1.2547 0,-1.63763 -0.33912,-2.79987 -1.2349,-4.23227 -1.09875,-1.756975 -0.70433,-2.310044 1.27331,-1.785487 1.89089,0.50154 4.23648,1.73644 5.73788,3.020837 0.77586,0.66374 1.4918,1.20679 1.59097,1.20679 0.0992,0 1.11509,-2.13984 2.2576,-4.755195 2.07951,-4.760302 2.50761,-5.471832 3.14502,-5.227234 0.18767,0.07201 1.28461,2.295709 2.43764,4.941545 1.15303,2.645834 2.1937,4.870724 2.31258,4.944194 0.11888,0.0735 0.77963,-0.36732 1.46833,-0.97955 0.68871,-0.61223 2.20469,-1.569917 3.36886,-2.128207 3.81995,-1.831894 5.4605,-1.593976 3.95807,0.57401 -0.37789,0.545307 -0.85751,1.557757 -1.06581,2.249877 -0.40629,1.35 -0.51244,3.55556 -0.17112,3.55556 0.11419,0 0.91759,-0.24954 1.78534,-0.55453 2.12686,-0.74753 5.17375,-0.98148 5.62956,-0.43225 0.27757,0.33445 0.17768,0.69064 -0.58445,2.08415 -0.91569,1.67425 -1.68595,4.07835 -1.39871,4.36559 0.0831,0.0831 0.51757,-0.10999 0.96558,-0.42899 1.12745,-0.80282 3.43042,-1.57288 5.28301,-1.76651 2.86381,-0.29933 3.71987,0.34525 2.42504,1.82595 -0.79694,0.91134 -2.40672,3.3556 -2.40672,3.65431 0,0.0976 0.82115,0.11871 1.82479,0.0469 1.65437,-0.11837 1.85257,-0.0787 2.12223,0.4252 0.25611,0.47855 0.18131,0.65783 -0.53839,1.29037 -1.25498,1.10299 -1.80854,2.54104 -1.81532,4.7158 -0.006,1.83774 0.01,1.87956 1.07538,2.91042 0.59466,0.57523 1.39775,1.6412 1.78466,2.3688 0.61921,1.16445 0.70354,1.62401 0.70402,3.83646 5.3e-4,2.8303 -0.38889,3.87393 -2.19227,5.87407 -0.88926,0.98628 -3.66793,2.59187 -4.48646,2.59239 -0.43353,2.6e-4 -0.41737,0.25583 0.0942,1.48925 0.70634,1.70306 2.60976,4.15331 4.65352,5.9904 l 1.93303,1.73757 -0.66146,0.70616 c -0.92345,0.98587 -3.46506,2.35302 -5.86748,3.15617 -3.58472,1.1984 -8.0762,0.88667 -11.65107,-0.80864 l -1.51125,-0.71668 -1.79604,0.82005 c -3.68893,1.68433 -7.39901,2.18981 -11.03777,1.50386 z M 157.9521,150.1939 c 0.79845,-0.22093 1.80333,-0.58352 2.23307,-0.80575 l 0.78136,-0.40405 -0.77786,-0.5565 c -1.26647,-0.90606 -3.55918,-3.12079 -4.65318,-4.49492 l -1.01948,-1.28053 v -4.49621 c 0,-2.47291 -0.0893,-4.45024 -0.19844,-4.39406 -0.10914,0.0562 -0.64492,0.30583 -1.19062,0.55477 -0.85255,0.38892 -0.99219,0.57462 -0.99219,1.31952 0,2.8903 -2.09198,7.20082 -4.9234,10.14465 -1.42394,1.48048 -1.87189,2.10449 -1.62913,2.26943 0.9285,0.63086 3.39502,1.77831 4.44254,2.0667 2.92383,0.80496 5.21588,0.82721 7.92733,0.077 z m 13.49724,-2.03788 c 0,-2.11787 0.0907,-2.82104 0.39688,-3.0751 0.31663,-0.26278 0.47712,-0.26278 0.79375,0 0.30675,0.25458 0.39687,0.96142 0.39687,3.11279 v 2.78342 l 1.54903,-0.1619 c 0.85197,-0.089 1.86497,-0.28203 2.25112,-0.42884 l 0.70209,-0.26693 -1.16501,-1.70168 c -0.76555,-1.1182 -1.33071,-2.34491 -1.64826,-3.5776 l -0.48326,-1.87593 h -2.02802 -2.02802 l -0.1689,1.1263 c -0.21347,1.42356 -1.2419,3.65797 -2.29654,4.98955 -0.58397,0.73733 -0.71418,1.06175 -0.46101,1.14863 1.11424,0.38236 2.32488,0.62818 3.1971,0.64916 l 0.99218,0.0239 z m 22.43976,2.07962 c 1.54449,-0.36411 4.62766,-1.70176 5.18358,-2.24891 0.14102,-0.1388 -0.64601,-1.17012 -1.92017,-2.51618 -2.67584,-2.82685 -4.07245,-5.50769 -4.5591,-8.75141 -0.31722,-2.11431 -0.3349,-2.14918 -1.27402,-2.51222 -0.52379,-0.20249 -1.04164,-0.40844 -1.15078,-0.45767 -0.10914,-0.0492 -0.19844,1.98311 -0.19844,4.51631 v 4.60582 l -1.38906,1.60172 c -0.76398,0.88095 -2.1332,2.23027 -3.04271,2.9985 -0.9095,0.76822 -1.65364,1.48092 -1.65364,1.58376 0,0.19764 1.62245,0.85119 3.175,1.27894 1.41999,0.39124 4.96882,0.33997 6.82934,-0.0987 z m -27.32857,-2.25245 c 1.01113,-1.37743 1.9784,-3.57394 1.9784,-4.49261 0,-0.46886 -0.18058,-0.52672 -1.65365,-0.52994 -2.8868,-0.006 -2.84427,0.0329 -2.84427,-2.62016 0,-1.43415 0.11931,-2.41679 0.3175,-2.61498 0.23248,-0.23248 2.39094,-0.3175 8.06048,-0.3175 8.9521,0 8.29077,-0.22926 8.29077,2.87413 0,2.45823 -0.23524,2.68212 -2.81805,2.68212 h -1.9865 l 0.17088,0.8599 c 0.27559,1.38682 1.62669,3.97579 2.52123,4.83116 l 0.82747,0.79123 1.75205,-0.93339 c 2.20007,-1.17208 2.45299,-1.83167 1.74665,-4.55502 -0.40143,-1.5477 -0.41647,-1.85481 -0.10043,-2.05013 0.68858,-0.42557 1.25671,0.22258 1.73101,1.97479 0.25716,0.95001 0.5456,1.7273 0.64097,1.7273 0.0954,0 0.56885,-0.40799 1.05215,-0.90663 0.78695,-0.81193 0.85921,-1.01078 0.69171,-1.90362 -0.46432,-2.47504 -2.28646,-4.72576 -4.89673,-6.04848 -1.38925,-0.70399 -1.6234,-1.15374 -0.90923,-1.74644 0.35922,-0.29813 0.64215,-0.23657 1.87179,0.40723 1.8308,0.95855 3.50977,2.58312 4.55701,4.40937 l 0.81597,1.42294 0.002,-5.7753 0.002,-5.77531 -1.11462,0.95407 c -1.52277,1.30344 -3.56298,2.221 -5.55403,2.49786 -1.75667,0.24431 -2.59156,0.0354 -2.59156,-0.64843 0,-0.4642 1.04073,-0.91018 2.12396,-0.91018 1.282,0 3.57277,-1.01468 4.87133,-2.15771 1.72342,-1.51702 2.26512,-2.69916 2.26512,-4.94311 0,-1.30408 0.11409,-1.92491 0.39688,-2.1596 0.76335,-0.63352 1.19062,0.1377 1.19062,2.14906 0,1.00083 0.0567,1.81969 0.1259,1.81969 0.0692,0 0.51573,-0.23768 0.99219,-0.52818 1.03163,-0.62898 3.18608,-0.69778 4.17358,-0.13328 1.25027,0.71472 1.27949,0.63997 1.37,-3.50573 0.0671,-3.07444 0.18346,-4.0937 0.54823,-4.80315 0.57996,-1.12797 0.58744,-1.08383 -0.18369,-1.08383 -1.49255,0 -2.58077,2.03677 -3.01491,5.64289 -0.2309,1.91803 -0.54292,2.46381 -1.25278,2.19141 -0.39064,-0.1499 -0.43281,-0.45429 -0.31038,-2.24039 0.18467,-2.69427 1.31242,-5.94272 3.08641,-8.89028 0.76308,-1.2679 1.33406,-2.35863 1.26884,-2.42385 -0.22545,-0.22545 -2.61416,0.442 -3.88303,1.08498 -2.25032,1.14032 -4.18417,4.10608 -2.67741,4.10608 0.90901,0 1.34455,0.30914 1.34455,0.95435 v 0.63315 h -19.18983 c -16.88603,0 -19.20904,-0.0481 -19.34418,-0.40024 -0.21519,-0.56078 0.38035,-1.18726 1.12863,-1.18726 0.51589,0 0.62906,-0.13629 0.62906,-0.75755 0,-0.56372 -0.32574,-1.06223 -1.27316,-1.94843 -0.70024,-0.655 -1.52393,-1.32511 -1.83044,-1.48914 -0.81304,-0.43513 -3.54062,-1.10946 -3.8112,-0.94223 -0.12744,0.0788 0.11009,0.64181 0.52783,1.25121 1.83733,2.6803 3.24157,6.27898 3.74433,9.59575 0.26382,1.74039 0.25071,2.08738 -0.0918,2.42987 -0.73783,0.73783 -1.13109,0.2058 -1.45057,-1.96241 -0.48881,-3.31747 -1.02695,-4.79934 -1.90839,-5.25515 -0.41773,-0.21602 -0.99684,-0.39276 -1.28693,-0.39276 -0.52126,0 -0.5208,0.0147 0.0398,1.25678 0.46691,1.03448 0.58658,1.90023 0.67661,4.89479 0.0601,2.00091 0.14085,3.63802 0.17932,3.63802 0.0385,0 0.49739,-0.1786 1.01981,-0.39688 1.31845,-0.55088 3.03743,-0.49668 4.21192,0.13281 l 0.98827,0.52968 v -1.84329 c 0,-1.52153 0.0853,-1.88893 0.48863,-2.1048 0.78146,-0.41822 1.09887,0.17808 1.09887,2.06436 0,3.76245 2.64328,6.42911 7.08119,7.14381 1.94297,0.31291 2.17922,0.42958 2.17922,1.0762 0,0.69912 -0.55136,0.81574 -2.43565,0.51516 -2.14754,-0.34257 -4.31766,-1.33715 -5.56313,-2.54963 -0.54304,-0.52864 -1.05152,-0.89698 -1.12997,-0.81853 -0.0785,0.0784 -0.1104,2.63056 -0.071,5.67135 l 0.0716,5.52872 0.71812,-1.22156 c 1.81989,-3.09572 6.8225,-6.17308 6.8225,-4.19687 0,0.31247 -0.58485,0.80516 -1.68828,1.42223 -2.49188,1.39355 -3.98364,3.33136 -4.51189,5.86103 -0.14376,0.68844 -0.025,0.94989 0.81102,1.78594 1.12294,1.12295 1.4204,1.20982 1.4204,0.41482 0,-0.92272 0.57797,-2.57254 1.05128,-3.00087 0.35978,-0.3256 0.52457,-0.33783 0.89566,-0.0665 0.41992,0.30706 0.42357,0.4209 0.0477,1.48635 -0.56158,1.59167 -0.53466,3.54129 0.0559,4.04975 0.79575,0.6851 2.82379,1.79492 3.28475,1.79754 0.24227,0.001 0.88018,-0.59648 1.41758,-1.32856 z m 3.33758,-12.52494 c -1.05694,-0.38249 -2.94668,-1.90965 -2.94668,-2.38131 0,-0.18284 0.34854,-0.66636 0.77455,-1.0745 0.99488,-0.95316 1.87715,-3.01215 2.06323,-4.81504 0.16443,-1.5932 0.6285,-2.21245 1.26326,-1.68565 0.93088,0.77256 0.11622,4.39839 -1.55814,6.93486 l -0.4734,0.71715 0.88348,0.53863 c 1.10407,0.67313 3.27172,0.71797 4.57866,0.0947 1.07912,-0.51459 1.12406,-0.68554 0.41665,-1.58486 -0.72403,-0.92046 -1.56429,-3.27555 -1.75864,-4.92912 -0.12926,-1.09981 -0.074,-1.46713 0.26292,-1.74672 0.63749,-0.52908 1.11818,0.0172 1.31949,1.49956 0.27335,2.01275 0.91041,3.6152 1.89412,4.76446 0.50443,0.58931 0.91715,1.25484 0.91715,1.47897 0,0.52231 -1.56192,1.71616 -2.84373,2.1736 -1.2264,0.43765 -3.60475,0.44522 -4.79292,0.0152 z m -7.15215,-6.03971 c -1.5532,-0.83178 -2.21321,-2.04251 -2.06306,-3.7845 0.0627,-0.7276 0.20185,-1.53127 0.30917,-1.78593 0.16619,-0.39435 0.0438,-0.46363 -0.82536,-0.46708 -1.25449,-0.005 -1.76373,-0.30136 -1.63857,-0.95369 0.0868,-0.45245 0.41222,-0.50414 3.59622,-0.57128 3.91801,-0.0826 4.58523,0.10352 5.71715,1.59489 0.96053,1.26557 1.11888,2.54587 0.49055,3.96632 -1.01911,2.30386 -3.41694,3.16291 -5.5861,2.00127 z m 3.49087,-1.73712 c 1.1643,-1.04835 1.08392,-3.02858 -0.15827,-3.89864 -2.15982,-1.51279 -4.98234,1.36409 -3.46445,3.53118 0.81462,1.16303 2.54429,1.33848 3.62272,0.36746 z m 11.78683,1.78434 c -2.81791,-1.48875 -2.79685,-5.67282 0.0361,-7.17827 0.75719,-0.40237 1.51959,-0.48991 4.26708,-0.48991 2.53771,0 3.41906,0.089 3.65128,0.36885 0.47826,0.57627 -0.35006,1.21865 -1.5714,1.21865 h -1.0277 l 0.39957,1.12448 c 0.69643,1.95992 -0.12264,3.99781 -1.98962,4.95027 -1.31067,0.66866 -2.50738,0.67054 -3.76535,0.006 z m 3.64318,-1.8765 c 1.0892,-1.02325 1.02833,-2.48335 -0.15277,-3.66444 -1.31399,-1.314 -3.97931,-0.10424 -3.97931,1.80616 0,2.33552 2.45085,3.43771 4.13208,1.85828 z m -22.38388,-7.77069 c -0.26871,-0.32378 -0.26871,-0.48069 0,-0.80447 0.28225,-0.34009 1.15599,-0.39119 5.65479,-0.33073 l 5.32097,0.0715 v 0.66145 0.66146 l -5.32097,0.0715 c -4.4988,0.0605 -5.37254,0.009 -5.65479,-0.33073 z m 15.0768,0.13347 c -0.30728,-0.19825 -0.33064,-0.36229 -0.10345,-0.72661 0.26566,-0.42604 0.8038,-0.47055 5.68853,-0.47055 h 5.39513 v 0.66145 0.66146 l -5.29167,0.0651 c -3.08124,0.0379 -5.45745,-0.0418 -5.68854,-0.1909 z m 4.75845,20.43252 c -0.008,-1.4191 0.0696,-1.40417 -6.89371,-1.32773 l -6.4637,0.071 -0.0821,0.99219 -0.0821,0.99219 h 6.76285 6.76284 l -0.004,-0.72761 z m -28.6211,-4.63067 c 0.0719,-0.86883 -0.007,-1.02642 -0.62986,-1.26336 -1.14949,-0.43703 -2.20503,-1.29661 -2.69742,-2.19662 -0.33285,-0.60841 -0.49539,-1.6942 -0.59132,-3.95017 -0.0728,-1.71112 -0.24611,-3.12396 -0.38522,-3.13964 -0.13912,-0.0157 -0.61537,0.61043 -1.05834,1.39134 -0.70225,1.23801 -0.80461,1.674 -0.79926,3.40423 0.007,2.25112 0.52183,3.50942 2.02744,4.95478 1.07244,1.02952 2.79658,1.93643 3.52267,1.85294 0.40689,-0.0468 0.54815,-0.29023 0.61131,-1.0535 z m 46.05993,0.42774 c 1.43509,-0.71513 2.64508,-2.07288 3.35695,-3.76688 0.61725,-1.46885 0.48279,-3.94684 -0.29935,-5.51638 -1.2109,-2.42996 -1.36277,-2.31019 -1.49358,1.17789 -0.15127,4.03322 -0.78124,5.27203 -3.19356,6.27996 -1.00022,0.41792 -1.13906,0.74351 -0.82181,1.9273 0.20717,0.77305 0.74002,0.75091 2.45135,-0.10189 z m -43.43347,-3.68522 c 1.6749,-1.09743 1.76496,-3.47004 0.18441,-4.85778 -2.05942,-1.80819 -5.14197,-0.38548 -5.14197,2.37322 0,2.44246 2.84542,3.86849 4.95756,2.48456 z m 41.46473,0.30348 c 2.34419,-0.97946 2.41652,-4.42096 0.11887,-5.65545 -1.08445,-0.58265 -2.88362,-0.23751 -3.73623,0.71672 -1.36283,1.52528 -0.84715,4.1496 0.97101,4.94157 1.04476,0.45507 1.55172,0.45453 2.64635,-0.003 z m -6.28489,-19.7997 c 0.16401,-1.57798 0.5811,-3.57814 0.9975,-4.78341 0.3936,-1.13929 0.66147,-2.1256 0.59526,-2.19181 -0.22511,-0.22511 -2.60663,0.4355 -3.86041,1.07084 -1.37185,0.69517 -3.47392,2.64573 -3.47392,3.22353 0,0.27829 0.46772,0.36574 1.95607,0.36574 1.56239,0 1.98931,0.0866 2.12123,0.43042 0.44426,1.15773 0.34117,1.1655 -14.4965,1.09324 l -14.05475,-0.0684 v -0.66146 c 0,-0.63758 0.0692,-0.66426 1.91822,-0.73919 1.18442,-0.048 1.91823,-0.19027 1.91823,-0.3719 0,-0.56983 -1.30762,-1.9989 -2.56485,-2.80306 -1.30852,-0.83697 -4.44532,-1.86386 -4.75315,-1.55604 -0.0952,0.0952 0.0278,0.62083 0.27346,1.16802 0.73739,1.64272 1.21537,3.77195 1.39638,6.2204 l 0.17115,2.31511 h 15.78711 15.78711 z m -19.63242,-2.57933 c 0.28688,-0.46416 -0.65166,-3.52336 -1.53099,-4.99035 -1.01476,-1.69292 -2.99627,-3.54622 -4.73191,-4.42573 -1.71637,-0.86975 -1.8485,-0.82342 -1.38617,0.48603 0.25087,0.71054 0.37946,1.92596 0.34929,3.30169 -0.0472,2.15285 -0.0371,2.18894 0.89919,3.22534 0.52081,0.57648 1.13531,1.41243 1.36556,1.85769 0.41665,0.80572 0.42919,0.80955 2.64519,0.80955 1.2246,0 2.30003,-0.11889 2.38984,-0.26422 z m 5.67688,-1.38942 c 0.17685,-0.90951 0.66753,-2.38282 1.0904,-3.27404 l 0.76886,-1.62039 -1.88138,-4.266587 c -1.03476,-2.346621 -1.96208,-4.266585 -2.06073,-4.266585 -0.19252,0 -3.7468,8.168832 -3.73385,8.581562 0.004,0.13596 0.24136,0.73127 0.52687,1.32292 0.28551,0.59165 0.70911,1.84963 0.94135,2.79551 0.23223,0.94589 0.47114,1.86862 0.53092,2.05053 0.0719,0.21882 0.68176,0.33072 1.80235,0.33072 h 1.69367 z m 6.97653,0.26458 c 0.49252,-0.76398 1.13301,-1.59957 1.4233,-1.85685 0.45854,-0.4064 0.51316,-0.71889 0.41617,-2.38125 -0.0739,-1.26621 0.0259,-2.35678 0.29493,-3.22403 0.2236,-0.72082 0.34806,-1.36906 0.27657,-1.44055 -0.0715,-0.0715 -0.75174,0.17524 -1.51165,0.54829 -2.08482,1.02345 -3.94847,2.84723 -5.01268,4.90543 -0.96452,1.8654 -1.65636,4.15229 -1.38769,4.58701 0.0853,0.13806 1.15648,0.25101 2.38035,0.25101 h 2.22521 z"
         id="path1154" />
      <g
         aria-label="ASTech"
         transform="matrix(0.39734689,0,0,0.39734689,-83.588899,-78.713251)"
         id="text5109"
         style="font-size:40px;line-height:1.25;font-family:'Varela Round';-inkscape-font-specification:'Varela Round';text-align:center;white-space:pre;shape-inside:url(#rect5111);stroke-width:0.665875">
        <path
           d="m 602.39777,613.77412 -10.2,-24.08 c -0.36,-0.84 -1.12,-1.64 -2.32,-1.64 h -0.4 c -1.2,0 -1.96,0.8 -2.32,1.64 l -10.2,24.08 c -0.12,0.28 -0.2,0.56 -0.2,0.8 0,1 0.68,1.8 1.8,1.8 0.76,0 1.4,-0.4 1.72,-1.12 l 2.6,-6.24 h 13.6 l 2.6,6.24 c 0.32,0.72 0.96,1.12 1.72,1.12 1.12,0 1.8,-0.8 1.8,-1.8 0,-0.24 -0.08,-0.52 -0.2,-0.8 z m -18.12,-8.08 5.4,-13 5.4,13 z"
           style="stroke-width:0.443389"
           id="path952" />
        <path
           d="m 609.55771,595.77412 c 0,-3 3.08,-4.56 7.12,-4.56 2.44,0 4.6,0.44 6.44,1.08 0.2,0.08 0.44,0.16 0.64,0.16 1,0 1.6,-0.88 1.6,-1.68 0,-0.96 -0.56,-1.4 -1.12,-1.6 -2.16,-0.8 -4.84,-1.32 -7.96,-1.32 -6.76,0 -10.36,3.76 -10.36,8.2 0,9.84 17,6.56 17,12.48 0,3.48 -3.04,4.6 -7,4.6 -3.44,0 -6.08,-0.84 -7.88,-1.64 -0.28,-0.12 -0.52,-0.16 -0.76,-0.16 -1,0 -1.64,0.8 -1.64,1.68 0,0.72 0.52,1.4 1.12,1.64 2.32,1 5.52,1.92 9.52,1.92 6.2,0 10.24,-3.28 10.24,-7.8 0,-10.56 -16.96,-6.08 -16.96,-13 z"
           style="stroke-width:0.443389"
           id="path954" />
        <path
           d="m 648.91765,588.25412 h -19.92 c -0.96,0 -1.68,0.76 -1.68,1.72 0,0.96 0.72,1.68 1.68,1.68 h 8.16 v 22.92 c 0,1 0.8,1.8 1.8,1.8 1,0 1.84,-0.8 1.84,-1.8 v -22.92 h 8.12 c 0.96,0 1.72,-0.72 1.72,-1.68 0,-0.96 -0.76,-1.72 -1.72,-1.72 z"
           style="stroke-width:0.443389"
           id="path956" />
        <path
           d="m 666.55754,611.77412 c -0.28,0 -0.48,0.04 -0.72,0.16 -1.48,0.76 -3,1.24 -5.4,1.24 -4.32,0 -6.6,-2.32 -7,-5.92 h 13.56 c 1.12,0 1.84,-0.8 1.84,-1.8 0,-5.32 -3.36,-10.08 -9.52,-10.08 -6.64,0 -9.56,5.2 -9.56,10.6 0,6.72 3.84,10.6 10.36,10.6 3.48,0 5.24,-0.76 7,-1.76 0.56,-0.32 1.04,-0.84 1.04,-1.48 0,-0.92 -0.76,-1.56 -1.6,-1.56 z m -7.24,-13.32 c 2.56,0 5.68,1.68 5.92,5.84 h -11.8 c 0.24,-4.16 3.32,-5.84 5.88,-5.84 z"
           style="stroke-width:0.443389"
           id="path958" />
        <path
           d="m 688.91753,611.65412 c -0.32,0 -0.52,0.04 -0.88,0.24 -1.4,0.72 -2.52,1.28 -4.6,1.28 -4.64,0 -7.36,-2.92 -7.36,-7.2 0,-4.28 2.72,-7.2 7.36,-7.2 2.08,0 3.2,0.56 4.6,1.28 0.36,0.2 0.56,0.24 0.88,0.24 0.84,0 1.52,-0.84 1.52,-1.6 0,-0.6 -0.32,-1.08 -0.8,-1.4 -1.36,-0.88 -3.36,-1.92 -6.52,-1.92 -5.68,0 -10.68,3.92 -10.68,10.6 0,6.68 5,10.6 10.68,10.6 3.16,0 5.16,-1.04 6.52,-1.92 0.48,-0.32 0.8,-0.8 0.8,-1.4 0,-0.76 -0.68,-1.6 -1.52,-1.6 z"
           style="stroke-width:0.443389"
           id="path960" />
        <path
           d="m 706.2775,595.37412 c -3.56,0 -5.76,1.84 -7.44,3.68 v -10.44 c 0,-1.04 -0.84,-1.84 -1.84,-1.84 -1,0 -1.8,0.8 -1.8,1.84 v 25.96 c 0,1 0.8,1.8 1.8,1.8 1,0 1.84,-0.8 1.84,-1.8 v -12 c 1.6,-2 3.68,-3.84 6.56,-3.84 3.12,0 4.4,1.84 4.4,4.88 v 10.96 c 0,1 0.8,1.8 1.8,1.8 1,0 1.84,-0.8 1.84,-1.8 v -11.36 c 0,-4.28 -2.6,-7.84 -7.16,-7.84 z"
           style="stroke-width:0.443389"
           id="path962" />
      </g>
    </g>
  </g>
</svg>
